<svg width="20" height="20" viewBox="0 0 20 20" fill="#AFB7CA" xmlns="http://www.w3.org/2000/svg">
<path d="M12.6666 16H5.99999C5.46573 16 4.9635 15.7919 4.58577 15.4142C4.20803 15.0364 4 14.5342 4 14V7.33333C4 6.7991 4.20806 6.29687 4.58579 5.91913C4.96352 5.5414 5.46576 5.33334 6.00001 5.33334H8.66667C9.03488 5.33334 9.33334 5.6318 9.33334 6.00001C9.33334 6.36822 9.03488 6.66668 8.66667 6.66668H5.99999C5.8219 6.66668 5.65451 6.73603 5.52861 6.86193C5.40272 6.98783 5.33334 7.15525 5.33334 7.33333V14C5.33334 14.1781 5.40269 14.3455 5.52861 14.4714C5.65451 14.5973 5.8219 14.6667 5.99999 14.6667H12.6666C12.8447 14.6667 13.0121 14.5973 13.138 14.4714C13.2639 14.3455 13.3333 14.1781 13.3333 14V11.3333C13.3333 10.9651 13.6318 10.6667 14 10.6667C14.3682 10.6667 14.6667 10.9651 14.6667 11.3333V14C14.6667 14.5342 14.4586 15.0364 14.0808 15.4142C13.7031 15.7919 13.2008 16 12.6666 16ZM8.66667 12C8.49604 12 8.32543 11.9349 8.19527 11.8047C7.93493 11.5444 7.93493 11.1222 8.19527 10.8619L13.7238 5.33334H11.3333C10.9651 5.33334 10.6667 5.03488 10.6667 4.66667C10.6667 4.29846 10.9651 4 11.3333 4H15.3333C15.5074 3.9998 15.6746 4.0679 15.799 4.18966L15.7991 4.18971L15.8004 4.19101L15.8008 4.19138L15.8018 4.19241L15.8025 4.19308L15.8032 4.19383L15.8047 4.19527L15.8061 4.19672L15.8068 4.19746L15.8075 4.19814C15.808 4.19858 15.8085 4.19905 15.8089 4.19956L15.8102 4.20088L15.8102 4.20093C15.932 4.32535 16.0001 4.49257 15.9999 4.66665V8.66665C15.9999 9.03486 15.7014 9.33332 15.3332 9.33332C14.965 9.33332 14.6666 9.03486 14.6666 8.66665V6.27616L9.13795 11.8048C9.00789 11.9349 8.83728 12 8.66667 12Z" />
</svg>
