<svg width="300" height="70" viewBox="0 0 300 70" fill="none" xmlns="http://www.w3.org/2000/svg"><path d="M55.13 30.326a12.637 12.637 0 003.211-9.047c-.314-6.77-6.074-11.982-12.763-11.982h-1.29V4.521c0-2.46-1.968-4.453-4.395-4.453H38.44v9.23h-6.428V4.52c0-2.46-1.969-4.453-4.396-4.453h-1.452v9.23H.871c0 4.581 3.67 8.3 8.193 8.3h35.103c2.34 0 4.239 1.923 4.239 4.293s-1.9 4.294-4.24 4.294H10.621c0 3.436 2.06 6.389 5.005 7.647a8.038 8.038 0 003.194.653h25.172c2.213 0 4.187 1.642 4.396 3.87.238 2.56-1.742 4.713-4.216 4.713H19.267c0 4.135 2.99 7.553 6.898 8.182v8.682h1.452c2.427 0 4.396-1.994 4.396-4.453v-4.123h6.428v8.57h1.452c2.427 0 4.395-1.994 4.395-4.453V51.35h1.644c6.863 0 12.426-5.635 12.426-12.588 0-3.253-1.23-6.206-3.228-8.441v.005z" fill="#FFAF13"/><text x="70" y="28" fill="#fff" font-size="28" font-family="Arial, sans-serif" font-weight="bold">Landing</text><text x="70" y="52" fill="#fff" font-size="28" font-family="Arial, sans-serif" font-weight="bold">Page</text></svg>