<svg width="20" height="20" viewBox="0 0 20 20" fill="#AFB7CA" xmlns="http://www.w3.org/2000/svg"><path d="M12.667 16H6a1.987 1.987 0 01-1.414-.586A1.987 1.987 0 014 14V7.333c0-.534.208-1.036.586-1.414.378-.378.88-.586 1.414-.586h2.667a.667.667 0 110 1.334H6a.662.662 0 00-.471.195.662.662 0 00-.196.471V14c0 .178.07.345.196.471a.662.662 0 00.471.196h6.667c.178 0 .345-.07.471-.196a.662.662 0 00.195-.471v-2.667a.667.667 0 011.334 0V14c0 .534-.208 1.036-.586 1.414-.378.378-.88.586-1.414.586zm-4-4a.667.667 0 01-.471-1.138l5.528-5.529h-2.39a.667.667 0 110-1.333h4c.173 0 .34.068.465.19l.001.001.002.001v.001h.001l.002.002.001.002.002.001V4.2h.002a.67.67 0 01.19.467v4a.667.667 0 01-1.333 0v-2.39l-5.529 5.528c-.13.13-.3.195-.471.195z"/></svg>