<svg width="100" height="25" viewBox="0 0 100 25" fill="none" xmlns="http://www.w3.org/2000/svg"><path fill-rule="evenodd" clip-rule="evenodd" d="M95.69 14.762v10.09h-4.105v-10.09h-3.709v-3.578H99.4v3.578h-3.71zm-26.783 10.09h-8.593v-3.447h7.313c.554 0 1.016-.236 1.016-.776s-.132-.881-1.016-.881h-7.313v-3.46h7.18a.821.821 0 00.855-.538.813.813 0 00.043-.356c0-.395-.132-.763-.897-.763h-7.181v-3.447h8.078c2.376 0 4.224 1.053 4.224 3.578a2.92 2.92 0 01-.578 1.957 2.944 2.944 0 01-1.718 1.108 3.38 3.38 0 011.86 1.213 3.36 3.36 0 01.7 2.102 3.593 3.593 0 01-1.137 2.748 3.619 3.619 0 01-2.823.962h-.013zm-15.51-3.447h4.765l1.148 3.447h-4.778l-1.135-3.447zm-4.356-10.22h5.28l3.18 8.563H45.834l3.208-8.564zm-9.742 13.667h-4.225l-5.003-13.668h4.74l2.93 8.92 2.838-8.92h4.739l-5.003 13.668h-1.017zm-15.762 0H16.74v-3.578h6.415a3.186 3.186 0 002.149-1.06c.55-.62.835-1.43.795-2.255a2.95 2.95 0 00-.86-2.34 2.972 2.972 0 00-2.348-.857h-2.046v4.986H16.74v-8.564h6.02c3.801 0 7.563 1.763 7.563 6.893a6.649 6.649 0 01-1.954 4.818 6.695 6.695 0 01-4.83 1.957zM9.44 21.405h4.752l1.136 3.447H10.64l-1.2-3.447zm-4.356-10.22h5.28l3.195 8.563H1.875l3.208-8.564zM4.82 24.852H.08l1.135-3.447h4.74l-1.136 3.447zm45.106-3.447l-1.148 3.447h-4.74l1.136-3.447h4.752z" fill="#fff"/><path fill-rule="evenodd" clip-rule="evenodd" d="M75.059 21.286h11.14v3.582H75.06v-3.582zm0-4.992h11.14v3.464H75.06v-3.464zm0-5.11h11.14v3.583H75.06v-3.583z" fill="#E41313"/><path d="M.855 3.317v1.731H.08V.388h1.706c.498 0 .893.135 1.185.406.294.271.442.63.442 1.076 0 .456-.144.812-.432 1.066-.286.254-.687.38-1.204.38H.855zm0-.65h.931c.276 0 .486-.067.631-.202.145-.136.218-.333.218-.589 0-.252-.074-.452-.221-.602-.147-.151-.35-.229-.606-.233H.855v1.626zm2.983.618c0-.34.065-.645.193-.916a1.44 1.44 0 01.542-.627c.233-.147.5-.221.803-.221.447 0 .81.15 1.087.451.28.301.431.7.453 1.197l.004.183c0 .341-.064.647-.19.915a1.422 1.422 0 01-1.348.846c-.468 0-.842-.163-1.124-.487-.28-.327-.42-.76-.42-1.303v-.038zm.745.067c0 .356.07.636.21.839.142.2.338.3.589.3a.667.667 0 00.585-.307c.14-.205.211-.505.211-.9 0-.35-.072-.627-.217-.832a.677.677 0 00-.585-.307.673.673 0 00-.58.304c-.142.2-.213.502-.213.903zm5.877.624l.527-2.391h.726l-.904 3.463h-.612l-.71-2.378-.7 2.378h-.612L7.27 1.585h.726L8.53 3.95l.68-2.366h.56l.69 2.391zm3.21 1.137c-.472 0-.854-.155-1.149-.465-.292-.311-.437-.725-.437-1.242V3.31c0-.345.063-.654.19-.925.128-.273.308-.485.539-.637.23-.151.487-.227.771-.227.452 0 .8.15 1.045.451.247.301.37.727.37 1.277v.314h-2.165c.022.286.113.512.273.679a.81.81 0 00.606.25c.341 0 .619-.145.833-.433l.401.4a1.37 1.37 0 01-.533.484c-.22.113-.468.17-.744.17zm-.089-2.968a.62.62 0 00-.496.224c-.124.15-.204.358-.239.624h1.418v-.057c-.016-.26-.082-.457-.199-.59a.606.606 0 00-.484-.2zm3.734.151a1.765 1.765 0 00-.303-.026c-.341 0-.571.137-.69.41v2.368h-.744V1.585h.71l.02.387c.179-.3.428-.451.747-.451a.67.67 0 01.263.045l-.003.73zm1.868 2.817c-.471 0-.854-.155-1.148-.465-.292-.311-.438-.725-.438-1.242V3.31c0-.345.063-.654.19-.925.128-.273.308-.485.539-.637.23-.151.488-.227.772-.227.45 0 .799.15 1.044.451.247.301.37.727.37 1.277v.314h-2.165c.023.286.113.512.273.679a.81.81 0 00.606.25c.341 0 .619-.145.833-.433l.402.4a1.37 1.37 0 01-.533.484c-.22.113-.469.17-.745.17zm-.088-2.968a.62.62 0 00-.497.224c-.124.15-.204.358-.239.624h1.418v-.057c-.016-.26-.082-.457-.199-.59a.606.606 0 00-.483-.2zm1.859 1.146c0-.533.118-.961.355-1.284a1.12 1.12 0 01.953-.486c.35 0 .635.128.851.384V.132h.744v4.916h-.674l-.036-.358a1.08 1.08 0 01-.892.423c-.388 0-.702-.164-.943-.49-.239-.327-.358-.77-.358-1.332zm.744.067c0 .352.064.628.193.826.13.197.315.295.554.295.305 0 .527-.142.668-.426V2.574a.69.69 0 00-.662-.416c-.24 0-.426.1-.557.3-.13.2-.196.5-.196.9zm7.406-.006c0 .538-.115.966-.346 1.284a1.102 1.102 0 01-.947.477c-.387 0-.69-.147-.906-.439l-.037.374h-.674V.132h.745v1.786c.214-.265.503-.397.866-.397.405 0 .722.157.953.47.23.314.346.753.346 1.316v.045zm-.744-.067c0-.376-.063-.658-.19-.845a.624.624 0 00-.552-.282.69.69 0 00-.68.442v1.427c.133.301.362.452.687.452a.62.62 0 00.539-.272c.126-.182.192-.456.196-.823v-.1zm2.493.65l.674-2.35h.793l-1.317 3.988c-.202.583-.545.874-1.03.874a1.28 1.28 0 01-.357-.057v-.602l.14.01c.188 0 .33-.037.423-.11.096-.07.172-.19.227-.358l.107-.298-1.164-3.447h.802l.702 2.35z" fill="#fff"/></svg>