<svg width="300" height="70" viewBox="0 0 300 70" fill="none" xmlns="http://www.w3.org/2000/svg">

  <path d="M55.1298 30.3265C57.2493 27.9559 58.5036 24.7677 58.341 21.2794C58.0274 14.5088 52.267 9.29707 45.5776 9.29707H44.2885V4.5206C44.2885 2.06178 42.3199 0.0676575 39.8927 0.0676575H38.441V9.29707H32.0128V4.5206C32.0128 2.06178 30.0443 0.0676575 27.6171 0.0676575H26.1654V9.29707H0.87085C0.87085 13.8794 4.54076 17.5971 9.06428 17.5971H44.1665C46.5067 17.5971 48.4055 19.5206 48.4055 21.8912C48.4055 24.2618 46.5067 26.1853 44.1665 26.1853H10.6205C10.6205 29.6206 12.6819 32.5735 15.626 33.8324C16.6073 34.2559 17.6874 34.4853 18.8197 34.4853H43.9923C46.2047 34.4853 48.179 36.1265 48.3881 38.3559C48.6262 40.9147 46.646 43.0677 44.1723 43.0677H19.2669C19.2669 47.203 22.2574 50.6206 26.1654 51.25V59.9324H27.6171C30.0443 59.9324 32.0128 57.9382 32.0128 55.4794V51.3559H38.441V59.9265H39.8927C42.3199 59.9265 44.2885 57.9324 44.2885 55.4735V51.35H45.9318C52.7955 51.35 58.3584 45.7147 58.3584 38.7618C58.3584 35.5088 57.1273 32.5559 55.1298 30.3206V30.3265Z" fill="#FFAF13"/>


  <text x="70" y="28"
        fill="white"
        font-size="28"
        font-family="Arial, sans-serif"
        font-weight="bold">
    Landing
  </text>

  <text x="70" y="52"
        fill="white"
        font-size="28"
        font-family="Arial, sans-serif"
        font-weight="bold">
    Page
  </text>
</svg>





